<mxfile host="app.diagrams.net" agent="Mozilla/5.0 (Macintosh; Intel Mac OS X 10_15_7) AppleWebKit/537.36 (KHTML, like Gecko) Chrome/137.0.0.0 Safari/537.36" version="27.1.5">
  <diagram name="Page-1" id="NCnQIWkvju_PDoZEBmfF">
    <mxGraphModel dx="815" dy="1184" grid="1" gridSize="10" guides="1" tooltips="1" connect="1" arrows="1" fold="1" page="1" pageScale="1" pageWidth="827" pageHeight="1169" math="0" shadow="0">
      <root>
        <mxCell id="0" />
        <mxCell id="1" parent="0" />
        <mxCell id="yeqptDmwpn4IjCIg9mZY-1" value="Region" style="points=[[0,0],[0.25,0],[0.5,0],[0.75,0],[1,0],[1,0.25],[1,0.5],[1,0.75],[1,1],[0.75,1],[0.5,1],[0.25,1],[0,1],[0,0.75],[0,0.5],[0,0.25]];outlineConnect=0;gradientColor=none;html=1;whiteSpace=wrap;fontSize=12;fontStyle=1;container=1;pointerEvents=0;collapsible=0;recursiveResize=0;shape=mxgraph.aws4.group;grIcon=mxgraph.aws4.group_region;strokeColor=#00A4A6;fillColor=none;verticalAlign=top;align=left;spacingLeft=30;fontColor=#147EBA;dashed=1;strokeWidth=2;" vertex="1" parent="1">
          <mxGeometry x="20" y="158" width="800" height="540" as="geometry" />
        </mxCell>
        <mxCell id="yeqptDmwpn4IjCIg9mZY-2" value="VPC" style="points=[[0,0],[0.25,0],[0.5,0],[0.75,0],[1,0],[1,0.25],[1,0.5],[1,0.75],[1,1],[0.75,1],[0.5,1],[0.25,1],[0,1],[0,0.75],[0,0.5],[0,0.25]];outlineConnect=0;gradientColor=none;html=1;whiteSpace=wrap;fontSize=12;fontStyle=1;container=1;pointerEvents=0;collapsible=0;recursiveResize=0;shape=mxgraph.aws4.group;grIcon=mxgraph.aws4.group_vpc2;strokeColor=#8C4FFF;fillColor=none;verticalAlign=top;align=left;spacingLeft=30;fontColor=#AAB7B8;dashed=0;" vertex="1" parent="yeqptDmwpn4IjCIg9mZY-1">
          <mxGeometry x="40" y="32" width="730" height="470" as="geometry" />
        </mxCell>
        <mxCell id="yeqptDmwpn4IjCIg9mZY-16" value="AZ" style="text;align=center;html=1;verticalAlign=middle;whiteSpace=wrap;rounded=0;labelBackgroundColor=none;fillStyle=auto;fillColor=light-dark(#0050EF,#FFFAD8);fontColor=light-dark(#ffffff, #bd2e2e);strokeColor=default;" vertex="1" parent="yeqptDmwpn4IjCIg9mZY-2">
          <mxGeometry x="501" y="62" width="60" height="30" as="geometry" />
        </mxCell>
        <mxCell id="yeqptDmwpn4IjCIg9mZY-17" value="AZ" style="text;align=center;html=1;verticalAlign=middle;whiteSpace=wrap;rounded=0;labelBackgroundColor=none;fillStyle=auto;fillColor=light-dark(#0050EF,#FFFAD8);fontColor=light-dark(#ffffff, #bd2e2e);strokeColor=default;" vertex="1" parent="yeqptDmwpn4IjCIg9mZY-2">
          <mxGeometry x="121" y="62" width="60" height="30" as="geometry" />
        </mxCell>
        <mxCell id="yeqptDmwpn4IjCIg9mZY-19" value="Public subnet" style="points=[[0,0],[0.25,0],[0.5,0],[0.75,0],[1,0],[1,0.25],[1,0.5],[1,0.75],[1,1],[0.75,1],[0.5,1],[0.25,1],[0,1],[0,0.75],[0,0.5],[0,0.25]];outlineConnect=0;gradientColor=none;html=1;whiteSpace=wrap;fontSize=12;fontStyle=0;container=1;pointerEvents=0;collapsible=0;recursiveResize=0;shape=mxgraph.aws4.group;grIcon=mxgraph.aws4.group_security_group;grStroke=0;strokeColor=#7AA116;fillColor=#F2F6E8;verticalAlign=top;align=left;spacingLeft=30;fontColor=#248814;dashed=0;" vertex="1" parent="yeqptDmwpn4IjCIg9mZY-2">
          <mxGeometry x="60" y="110" width="280" height="250" as="geometry" />
        </mxCell>
        <mxCell id="yeqptDmwpn4IjCIg9mZY-20" value="Private subnet" style="points=[[0,0],[0.25,0],[0.5,0],[0.75,0],[1,0],[1,0.25],[1,0.5],[1,0.75],[1,1],[0.75,1],[0.5,1],[0.25,1],[0,1],[0,0.75],[0,0.5],[0,0.25]];outlineConnect=0;gradientColor=none;html=1;whiteSpace=wrap;fontSize=12;fontStyle=0;container=1;pointerEvents=0;collapsible=0;recursiveResize=0;shape=mxgraph.aws4.group;grIcon=mxgraph.aws4.group_security_group;grStroke=0;strokeColor=#00A4A6;fillColor=#E6F6F7;verticalAlign=top;align=left;spacingLeft=30;fontColor=#147EBA;dashed=0;" vertex="1" parent="yeqptDmwpn4IjCIg9mZY-2">
          <mxGeometry x="411" y="110" width="279" height="250" as="geometry" />
        </mxCell>
        <mxCell id="yeqptDmwpn4IjCIg9mZY-13" value="" style="rounded=1;arcSize=10;dashed=1;strokeColor=#F59D56;fillColor=none;gradientColor=none;dashPattern=8 4;strokeWidth=2;" vertex="1" parent="yeqptDmwpn4IjCIg9mZY-20">
          <mxGeometry x="-21" y="-61" width="320" height="360" as="geometry" />
        </mxCell>
        <mxCell id="yeqptDmwpn4IjCIg9mZY-24" value="" style="outlineConnect=0;dashed=0;verticalLabelPosition=bottom;verticalAlign=top;align=center;html=1;shape=mxgraph.aws3.dynamo_db;fillColor=#2E73B8;gradientColor=none;" vertex="1" parent="yeqptDmwpn4IjCIg9mZY-20">
          <mxGeometry x="210" y="40" width="31" height="31" as="geometry" />
        </mxCell>
        <mxCell id="yeqptDmwpn4IjCIg9mZY-25" value="" style="sketch=0;points=[[0,0,0],[0.25,0,0],[0.5,0,0],[0.75,0,0],[1,0,0],[0,1,0],[0.25,1,0],[0.5,1,0],[0.75,1,0],[1,1,0],[0,0.25,0],[0,0.5,0],[0,0.75,0],[1,0.25,0],[1,0.5,0],[1,0.75,0]];outlineConnect=0;fontColor=#232F3E;fillColor=#ED7100;strokeColor=#ffffff;dashed=0;verticalLabelPosition=bottom;verticalAlign=top;align=center;html=1;fontSize=12;fontStyle=0;aspect=fixed;shape=mxgraph.aws4.resourceIcon;resIcon=mxgraph.aws4.ec2;" vertex="1" parent="yeqptDmwpn4IjCIg9mZY-20">
          <mxGeometry x="79" y="60" width="47" height="47" as="geometry" />
        </mxCell>
        <mxCell id="yeqptDmwpn4IjCIg9mZY-5" value="" style="rounded=1;arcSize=10;dashed=1;strokeColor=#F59D56;fillColor=none;gradientColor=none;dashPattern=8 4;strokeWidth=2;" vertex="1" parent="yeqptDmwpn4IjCIg9mZY-2">
          <mxGeometry x="32" y="50" width="336" height="359" as="geometry" />
        </mxCell>
        <mxCell id="yeqptDmwpn4IjCIg9mZY-23" value="" style="sketch=0;outlineConnect=0;fontColor=#232F3E;gradientColor=none;fillColor=#8C4FFF;strokeColor=none;dashed=0;verticalLabelPosition=bottom;verticalAlign=top;align=center;html=1;fontSize=12;fontStyle=0;aspect=fixed;pointerEvents=1;shape=mxgraph.aws4.nat_gateway;" vertex="1" parent="yeqptDmwpn4IjCIg9mZY-2">
          <mxGeometry x="280" y="300" width="38" height="38" as="geometry" />
        </mxCell>
        <mxCell id="yeqptDmwpn4IjCIg9mZY-28" value="" style="sketch=0;points=[[0,0,0],[0.25,0,0],[0.5,0,0],[0.75,0,0],[1,0,0],[0,1,0],[0.25,1,0],[0.5,1,0],[0.75,1,0],[1,1,0],[0,0.25,0],[0,0.5,0],[0,0.75,0],[1,0.25,0],[1,0.5,0],[1,0.75,0]];outlineConnect=0;fontColor=#232F3E;fillColor=#ED7100;strokeColor=#ffffff;dashed=0;verticalLabelPosition=bottom;verticalAlign=top;align=center;html=1;fontSize=12;fontStyle=0;aspect=fixed;shape=mxgraph.aws4.resourceIcon;resIcon=mxgraph.aws4.ec2;" vertex="1" parent="yeqptDmwpn4IjCIg9mZY-2">
          <mxGeometry x="110" y="170" width="50" height="50" as="geometry" />
        </mxCell>
        <mxCell id="yeqptDmwpn4IjCIg9mZY-4" value="" style="sketch=0;outlineConnect=0;fontColor=#ffffff;fillColor=#6a00ff;strokeColor=#3700CC;dashed=0;verticalLabelPosition=bottom;verticalAlign=top;align=center;html=1;fontSize=12;fontStyle=0;aspect=fixed;pointerEvents=1;shape=mxgraph.aws4.internet_gateway;" vertex="1" parent="1">
          <mxGeometry x="380" y="120" width="58" height="58" as="geometry" />
        </mxCell>
      </root>
    </mxGraphModel>
  </diagram>
</mxfile>
